PathFileType  4	(X/Y/Z) C:\Users\antoi\Documents\MyRepositories\mobilecap\ResultsAnalysis
DataRate	CameraRate	NumFrames	NumMarkers	Units	OrigDataRate	OrigDataStartFrame	OrigNumFrames
100.0	100.0	4	51	mm	100.0	34	135
Frame#	Time	r_knee			r_shank_antsup			r_ankle			r_calc			r_5meta			r_toe			L_knee			L_shank_antsup			L_ankle			L_calc			L_5meta			L_toe			r_sh2			r_sh3			r_sh4			L_sh2			L_sh3			r_thigh1			r_thigh2			r_thigh3			r_thigh4			r_thigh5			L_thigh1			L_thigh2			L_thigh3			L_thigh4			r.ASIS			r.PSIS			L.ASIS			L.PSIS			C7			R_Shoulder			L_Shoulder			R_Sternum			L_Sternum			R_humerus			R_elbow_med			R_elbow_lat			R_forearm			R_wrist_radius			R_wrist_ulna			L_humerus			L_elbow_med			L_elbow_lat			L_forearm			L_wrist_radius			L_wrist_ulna			R_HJC			L_HJC			R_HJC_reg			L_HJC_reg			
		X1	Y1	Z1	X2	Y2	Z2	X3	Y3	Z3	X4	Y4	Z4	X5	Y5	Z5	X6	Y6	Z6	X7	Y7	Z7	X8	Y8	Z8	X9	Y9	Z9	X10	Y10	Z10	X11	Y11	Z11	X12	Y12	Z12	X13	Y13	Z13	X14	Y14	Z14	X15	Y15	Z15	X16	Y16	Z16	X17	Y17	Z17	X18	Y18	Z18	X19	Y19	Z19	X20	Y20	Z20	X21	Y21	Z21	X22	Y22	Z22	X23	Y23	Z23	X24	Y24	Z24	X25	Y25	Z25	X26	Y26	Z26	X27	Y27	Z27	X28	Y28	Z28	X29	Y29	Z29	X30	Y30	Z30	X31	Y31	Z31	X32	Y32	Z32	X33	Y33	Z33	X34	Y34	Z34	X35	Y35	Z35	X36	Y36	Z36	X37	Y37	Z37	X38	Y38	Z38	X39	Y39	Z39	X40	Y40	Z40	X41	Y41	Z41	X42	Y42	Z42	X43	Y43	Z43	X44	Y44	Z44	X45	Y45	Z45	X46	Y46	Z46	X47	Y47	Z47	X48	Y48	Z48	X49	Y49	Z49	X50	Y50	Z50	X51	Y51	Z51	

34	0.33000000	314.44992	496.40900	-43.28719	345.34560	425.39605	-64.11069	248.37200	97.86831	-101.58218	181.67285	69.00524	-141.92413	349.09401	42.20073	-65.40659	401.47124	69.43014	-119.09112	507.31987	532.10414	-327.19853	513.37966	433.14620	-330.53934	346.65433	173.24911	-280.84060	276.06501	166.70703	-223.36099	412.03051	72.05293	-321.80608	469.03337	85.60273	-277.61656	312.65824	313.20824	-50.63939	267.84638	441.42238	-36.04193	240.14267	332.67883	-45.45705	434.82606	476.89421	-324.03994	386.58969	364.11065	-320.29764	406.85132	806.33231	8.58979	393.43182	695.39544	-5.11744	284.65164	697.79697	8.43422	295.88026	812.65076	34.66402	337.10405	675.35071	17.36800	416.36621	782.70351	-358.14357	488.05918	665.26035	-347.08823	325.36443	729.18189	-306.69677	402.83884	610.67718	-302.58705	426.01571	978.76232	-28.86174	231.26247	1018.50056	-97.51214	414.67539	959.79265	-279.14456	217.39542	1016.51287	-197.16558	230.29049	1419.90762	-158.73301	359.97904	1390.52189	0.66458	280.57091	1387.54266	-347.78220	372.31434	1394.76305	-159.74698	368.82015	1396.23078	-203.24830	400.99058	1261.72627	56.81429	382.70395	1040.07758	28.84597	411.64685	1062.81572	90.69054	524.09715	976.34858	81.90367	605.10586	867.47539	68.73239	587.83481	852.09403	96.73505	284.37244	1266.51070	-403.40109	251.97896	1040.41102	-314.31645	250.87176	1054.44037	-392.36882	305.57315	953.17475	-409.52816	317.95664	794.56545	-421.75477	288.91664	797.98083	-438.28872	345.79947	899.91744	-44.09301	333.43832	889.50990	-249.93175	357.68454	899.84387	-52.79769	334.83516	896.56907	-217.01051	
35	0.34000000	317.83537	496.38931	-43.30698	347.97517	425.18271	-64.09035	248.58429	98.20686	-101.65051	181.80681	69.14314	-141.93001	349.20681	42.22312	-65.34444	401.69879	69.37583	-118.99343	521.21598	533.01433	-325.21868	530.98670	433.94257	-328.98830	380.91157	163.58970	-279.31946	311.29323	152.60914	-221.48771	452.14648	67.05945	-321.20366	508.84300	83.94256	-277.29287	314.43621	313.27137	-50.56476	270.56524	441.79641	-36.09735	242.06278	333.29976	-45.48536	450.06496	472.80398	-322.27114	408.85036	357.32039	-318.60670	414.77049	804.93798	8.44927	399.75240	694.28569	-5.55208	290.97297	698.13258	8.16374	303.81849	812.76237	34.74988	343.23014	674.83388	16.79561	429.35462	783.52196	-357.53953	501.50823	666.52062	-345.58141	337.31274	729.38721	-308.02088	415.80384	611.03646	-303.23825	435.99280	978.04640	-28.31511	241.51176	1018.33360	-97.88597	425.43184	959.57255	-278.68733	227.97341	1016.53877	-197.53218	240.91613	1419.75856	-158.22495	371.01830	1390.51017	0.68736	290.04984	1387.26539	-347.25971	382.86509	1394.59098	-159.74893	379.23147	1396.09588	-203.29421	412.96912	1262.10893	56.72951	397.03476	1040.43042	28.41823	425.96064	1063.25711	90.34975	539.97857	978.85973	80.45797	623.07026	871.68637	66.17043	606.14586	855.81311	94.17610	291.31126	1266.23503	-402.64046	257.61214	1041.01310	-311.73950	254.33701	1054.98325	-389.72384	304.38945	952.12712	-408.79493	308.99970	792.76743	-421.70449	279.84100	797.94151	-437.51881	355.55586	899.42420	-44.08942	344.01811	889.38232	-249.99218	367.55673	899.35331	-52.60442	345.23446	896.39394	-216.90955	
36	0.35000000	321.54572	496.26541	-43.32682	350.84539	424.85090	-64.08883	248.83179	98.54139	-101.72302	181.95254	69.31326	-141.93825	349.31969	42.23510	-65.27945	401.94394	69.34462	-118.87897	534.12692	533.18150	-323.19982	547.86019	434.41021	-327.36268	415.74127	154.31008	-277.73136	347.62776	138.81896	-219.40007	492.59795	62.80810	-320.64209	548.83680	83.03750	-277.11270	316.43720	313.25413	-50.49444	273.57992	442.10994	-36.09804	244.21986	333.88472	-45.46765	464.83277	467.93221	-320.30406	431.01795	350.19377	-316.84153	422.79244	803.49718	8.25829	406.37304	693.05026	-6.07437	297.46112	698.34007	8.04162	311.89221	812.73542	34.80456	349.58113	674.26002	16.37493	441.85092	783.76001	-356.98021	514.25082	667.07166	-344.03110	349.01122	729.31689	-309.30450	428.07341	610.97049	-303.72699	445.90832	977.00847	-27.83388	251.83586	1018.04705	-98.35551	436.28940	958.99150	-278.26890	238.65752	1016.42302	-198.01661	251.58398	1419.38167	-157.77810	382.05125	1390.24449	0.68784	299.62444	1386.83480	-346.75617	393.48043	1394.19179	-159.79091	389.74315	1395.74462	-203.37868	424.86918	1262.22897	56.63548	411.24952	1040.54787	28.00606	440.13112	1063.49486	89.96514	555.62097	981.11586	79.05626	640.77682	875.68223	63.68814	624.17476	859.32041	91.68168	298.18261	1265.92779	-401.90696	263.24071	1041.45260	-309.43021	257.59988	1055.58008	-387.26470	303.21251	951.38690	-408.05493	300.56911	791.71004	-421.46223	271.33624	798.40304	-436.55233	365.21949	898.69039	-44.14309	354.58767	888.99044	-250.10955	377.33307	898.64573	-52.47159	355.59644	895.96664	-216.85621	
37	0.36000000	325.54985	496.04384	-43.34618	353.93128	424.40757	-64.09042	249.12000	98.87436	-101.78743	182.11198	69.51546	-141.95022	349.43778	42.24096	-65.20937	402.17724	69.30333	-118.75526	546.00150	532.57045	-321.13662	563.91760	434.57398	-325.67312	451.05754	145.62936	-276.11386	384.96886	125.62794	-217.12895	533.29283	59.48362	-320.12590	588.82719	83.10790	-277.10564	318.63565	313.16361	-50.42363	276.84427	442.38099	-36.05258	246.58408	334.43832	-45.42558	479.10869	462.36779	-318.05913	453.01928	342.87276	-314.96044	430.92447	802.00942	8.02901	413.21339	691.72934	-6.59109	304.12163	698.42774	8.05438	320.12937	812.57393	34.82681	356.14729	673.65997	16.12133	453.86591	783.39153	-356.44762	526.24136	666.85624	-342.42866	360.42870	728.94209	-310.48575	439.52904	610.45967	-303.95838	455.80107	975.68360	-27.43510	262.24628	1017.64852	-98.92044	447.25433	958.06581	-277.89620	249.45321	1016.16608	-198.61747	262.30569	1418.77753	-157.40052	393.07969	1389.72524	0.66032	309.33583	1386.26528	-346.28411	404.17251	1393.57936	-159.87415	400.35614	1395.18100	-203.50739	436.69083	1262.08709	56.53113	425.36073	1040.40224	27.60862	454.14529	1063.51958	89.53653	571.03152	983.11369	77.69352	658.19607	879.43879	61.28273	641.92048	862.60736	89.25599	305.05789	1265.61994	-401.20319	268.80967	1041.77057	-307.38752	260.63212	1056.27257	-385.00041	302.04470	950.94121	-407.33605	292.83034	791.31628	-421.03606	263.46757	799.30339	-435.40111	374.82790	897.74233	-44.25621	365.16439	888.34344	-250.28375	387.05095	897.74625	-52.40679	365.94885	895.30042	-216.85175	
